# File created by Blade
# Date/Time:  Thu Jan 22 19:29:39 2015
# Frame Rate: 120.000 fps
#------------------------------------------------------
:FULLY-SPECIFIED
:DEGREES
1111
root 2.165315 34.103720 1.356774 92.129998 -16.334059 -27.196277
RightUpLeg -3.049884 16.611159 -25.591270
RightLeg 150.199238 -0.000000 -0.000000
RightFoot 35.787485 5.094496 5.756318
RightToeBase -19.780822 -0.000000 0.000000
LeftUpLeg -91.585475 16.427169 6.665840
LeftLeg 27.691366 -0.000000 -0.000000
LeftFoot -24.283618 10.808990 -10.000569
LeftToeBase 7.921952 -0.000000 -0.000000
Spine -18.445750 -5.313386 -0.121644
RightShoulder -18.925090 -35.636398 -14.882181
RightArm 7.487139 -64.305723 63.032527
RightForeArm 37.244479 -0.000000 42.438233
RightHand -11.000752 0.000000 14.081633
RightHandThumb1 -24.326973 -0.000000 -32.862282
LeftShoulder -34.266058 7.153695 34.405318
LeftArm 157.991149 -44.379129 -119.374547
LeftForeArm -13.945061 -0.000000 60.714488
LeftHand -15.192792 -0.000000 10.698587
LeftHandThumb1 -26.253704 0.000000 33.147579
Head -16.616873 29.940390 -13.379917
1112
root 2.162073 34.107768 1.366541 92.171834 -16.348410 -27.220211
RightUpLeg -3.082742 16.551709 -25.595862
RightLeg 150.210880 -0.000000 -0.000000
RightFoot 35.781914 5.060372 5.842348
RightToeBase -19.765197 -0.000000 0.000000
LeftUpLeg -91.588677 16.449645 6.676808
LeftLeg 27.704744 -0.000000 -0.000000
LeftFoot -24.308737 10.918705 -9.912071
LeftToeBase 8.084000 -0.000000 -0.000000
Spine -18.500511 -5.363664 -0.128246
RightShoulder -18.912417 -35.620107 -14.894641
RightArm 7.473429 -64.333646 63.069453
RightForeArm 37.264245 0.000000 42.403866
RightHand -10.981129 -0.000000 14.088289
RightHandThumb1 -24.326973 -0.000000 -32.862282
LeftShoulder -34.265979 7.173969 34.383135
LeftArm 158.026824 -44.311232 -119.302927
LeftForeArm -13.949851 0.000000 60.727900
LeftHand -15.192873 -0.000000 10.735827
LeftHandThumb1 -26.253704 0.000000 33.147579
Head -16.581954 29.960960 -13.369132
1113
root 2.157782 34.113202 1.375961 92.219802 -16.371865 -27.251271
RightUpLeg -3.130041 16.471166 -25.609590
RightLeg 150.228731 -0.000000 -0.000000
RightFoot 35.762131 5.038669 5.818045
RightToeBase -19.673208 -0.000000 0.000000
LeftUpLeg -91.594918 16.486715 6.661930
LeftLeg 27.698842 -0.000000 -0.000000
LeftFoot -24.270237 10.883587 -9.977316
LeftToeBase 7.833794 -0.000000 -0.000000
Spine -18.551037 -5.407462 -0.164801
RightShoulder -18.905494 -35.594952 -14.879719
RightArm 7.450312 -64.359431 63.103867
RightForeArm 37.304645 -0.000000 42.372653
RightHand -10.979976 -0.000000 14.126030
RightHandThumb1 -24.326973 -0.000000 -32.862282
LeftShoulder -34.258236 7.187767 34.406337
LeftArm 158.023123 -44.180059 -119.265630
LeftForeArm -13.760319 -0.000000 60.786355
LeftHand -15.191360 -0.000000 10.598006
LeftHandThumb1 -26.253704 0.000000 33.147579
Head -16.557591 29.981877 -13.318020
1114
root 2.151674 34.119103 1.384564 92.263867 -16.386146 -27.282981
RightUpLeg -3.169846 16.418724 -25.608416
RightLeg 150.235977 -0.000000 -0.000000
RightFoot 35.777659 5.048906 5.867630
RightToeBase -19.621105 -0.000000 0.000000
LeftUpLeg -91.609937 16.536381 6.606039
LeftLeg 27.688984 -0.000000 -0.000000
LeftFoot -24.240896 10.845909 -9.989993
LeftToeBase 7.740826 -0.000000 -0.000000
Spine -18.596015 -5.451134 -0.196257
RightShoulder -18.876768 -35.548413 -14.874853
RightArm 7.360868 -64.398468 63.203738
RightForeArm 37.347858 -0.000000 42.334913
RightHand -10.978864 0.000000 14.112894
RightHandThumb1 -24.326973 -0.000000 -32.862282
LeftShoulder -34.258159 7.199807 34.433951
LeftArm 158.038401 -43.974100 -119.226266
LeftForeArm -13.587301 -0.000000 60.792891
LeftHand -15.261458 -0.000000 10.503657
LeftHandThumb1 -26.253704 0.000000 33.147579
Head -16.526810 29.990925 -13.269419
1115
root 2.143743 34.124744 1.392292 92.282009 -16.394254 -27.316381
RightUpLeg -3.181741 16.359982 -25.589516
RightLeg 150.243751 -0.000000 -0.000000
RightFoot 35.775731 5.067269 5.837797
RightToeBase -19.528244 -0.000000 0.000000
LeftUpLeg -91.592747 16.591454 6.562083
LeftLeg 27.663712 -0.000000 -0.000000
LeftFoot -24.212769 10.770326 -9.991480
LeftToeBase 7.599832 -0.000000 -0.000000
Spine -18.600230 -5.505166 -0.222341
RightShoulder -18.858111 -35.516389 -14.862748
RightArm 7.363618 -64.414126 63.230154
RightForeArm 37.317100 -0.000000 42.268744
RightHand -10.972330 -0.000000 14.172587
RightHandThumb1 -24.326973 -0.000000 -32.862282
LeftShoulder -34.263857 7.208757 34.454379
LeftArm 158.072935 -43.884842 -119.222078
LeftForeArm -13.500288 -0.000000 60.810547
LeftHand -15.315559 0.000000 10.485328
LeftHandThumb1 -26.253704 0.000000 33.147579
Head -16.526356 29.997121 -13.237345
1116
root 2.137603 34.129195 1.400615 92.315554 -16.406515 -27.331942
RightUpLeg -3.198280 16.296664 -25.585979
RightLeg 150.247776 -0.000000 -0.000000
RightFoot 35.756650 5.076394 5.830605
RightToeBase -19.450090 -0.000000 0.000000
LeftUpLeg -91.585044 16.619376 6.541514
LeftLeg 27.636457 -0.000000 -0.000000
LeftFoot -24.215358 10.789871 -9.943160
LeftToeBase 7.685170 -0.000000 -0.000000
Spine -18.631576 -5.571393 -0.240311
RightShoulder -18.888983 -35.527722 -14.846984
RightArm 7.552806 -64.478177 63.082153
RightForeArm 37.350019 -0.000000 42.193513
RightHand -10.935667 0.000000 14.187051
RightHandThumb1 -24.326973 -0.000000 -32.862282
LeftShoulder -34.290787 7.230432 34.424905
LeftArm 158.150104 -43.848974 -119.216315
LeftForeArm -13.530346 -0.000000 60.769494
LeftHand -15.285727 -0.000000 10.458406
LeftHandThumb1 -26.253704 0.000000 33.147579
Head -16.502915 29.994018 -13.212726
1117
root 2.130244 34.132775 1.407859 92.326485 -16.409109 -27.344310
RightUpLeg -3.188021 16.229876 -25.566622
RightLeg 150.244688 -0.000000 -0.000000
RightFoot 35.723984 5.064606 5.804330
RightToeBase -19.329962 -0.000000 0.000000
LeftUpLeg -91.568751 16.647343 6.520955
LeftLeg 27.618613 -0.000000 -0.000000
LeftFoot -24.188539 10.685011 -10.052932
LeftToeBase 7.549518 -0.000000 -0.000000
Spine -18.641099 -5.611319 -0.257608
RightShoulder -18.889339 -35.530850 -14.826064
RightArm 7.542302 -64.474450 63.108957
RightForeArm 37.389277 -0.000000 42.166398
RightHand -10.937008 -0.000000 14.143925
RightHandThumb1 -24.326973 -0.000000 -32.862282
LeftShoulder -34.269052 7.200814 34.444872
LeftArm 158.155180 -43.820927 -119.189172
LeftForeArm -13.555572 -0.000000 60.764942
LeftHand -15.274635 0.000000 10.541077
LeftHandThumb1 -26.253704 0.000000 33.147579
Head -16.463014 29.971013 -13.198375
1118
root 2.125831 34.133872 1.414565 92.329297 -16.416121 -27.319208
RightUpLeg -3.144015 16.137480 -25.561720
RightLeg 150.225444 -0.000000 -0.000000
RightFoot 35.695722 5.047226 5.771219
RightToeBase -19.389888 -0.000000 0.000000
LeftUpLeg -91.553033 16.625876 6.529135
LeftLeg 27.597928 -0.000000 -0.000000
LeftFoot -24.169192 10.698990 -10.061964
LeftToeBase 7.451864 -0.000000 -0.000000
Spine -18.660375 -5.681482 -0.255661
RightShoulder -18.873419 -35.551939 -14.846063
RightArm 7.553442 -64.474948 63.128154
RightForeArm 37.390467 -0.000000 42.138668
RightHand -10.917982 -0.000000 14.102448
RightHandThumb1 -24.326973 -0.000000 -32.862282
LeftShoulder -34.249515 7.189776 34.441394
LeftArm 158.169748 -43.797889 -119.191744
LeftForeArm -13.530592 0.000000 60.764218
LeftHand -15.282095 0.000000 10.590199
LeftHandThumb1 -26.253704 0.000000 33.147579
Head -16.398628 29.969210 -13.222985
